<svg width="82" height="79" viewBox="0 0 82 79" fill="none" xmlns="http://www.w3.org/2000/svg">
<ellipse cx="41" cy="38.9958" rx="34" ry="30.9958" fill="white"/>
<g filter="url(#filter0_f_1009_262)">
<ellipse cx="41" cy="39.921" rx="21" ry="18.9676" fill="#FFBB00"/>
</g>
<path d="M61.5156 37.4506C57.8255 38.2292 54.1185 39.0079 50.3945 39.7865C46.1628 40.7345 42.5065 41.6993 39.4258 42.6811C38.6133 44.5092 38.207 46.2188 38.207 47.81C38.207 52.3464 41.6771 54.6147 48.6172 54.6147C52.0703 54.6147 56.1667 54.0561 60.9062 52.9389L59.7891 54.767C50.0729 57.4753 42.2357 58.8295 36.2773 58.8295C29.4388 58.8295 26.0195 56.9167 26.0195 53.0912C26.0195 50.7891 27.2383 48.047 29.6758 44.8647C27.5091 43.9506 25.2917 42.3425 23.0234 40.0404C26.4766 39.5326 30.6406 39.0417 35.5156 38.5678C39.612 34.7761 44.707 30.8998 50.8008 26.9389C43.4206 28.6654 37.4115 30.5613 32.7734 32.6264C29.8281 31.7462 26.8997 29.9011 23.9883 27.0912C33.0273 25.7032 45.1979 24.8399 60.5 24.5014V24.9584C56.4714 25.974 52.9674 27.5652 49.9883 29.7318C47.1784 31.7631 44.5208 34.5561 42.0156 38.1108C46.0443 37.8738 52.5443 37.6537 61.5156 37.4506Z" fill="black"/>
<defs>
<filter id="filter0_f_1009_262" x="0" y="0.95343" width="82" height="77.9351" filterUnits="userSpaceOnUse" color-interpolation-filters="sRGB">
<feFlood flood-opacity="0" result="BackgroundImageFix"/>
<feBlend mode="normal" in="SourceGraphic" in2="BackgroundImageFix" result="shape"/>
<feGaussianBlur stdDeviation="10" result="effect1_foregroundBlur_1009_262"/>
</filter>
</defs>
</svg>
