<svg width="295" height="298" viewBox="0 0 295 298" fill="none" xmlns="http://www.w3.org/2000/svg">
<path d="M147.5 0C228.962 0 295 66.7096 295 149C295 231.29 228.962 298 147.5 298C66.038 298 0 231.29 0 149C0 66.7096 66.038 0 147.5 0ZM257.671 77.3984C259.159 66.7433 249.055 60.9866 240.457 67.4541C240.026 67.7758 239.594 68.1008 239.16 68.4258C238.979 68.4579 238.79 68.4901 238.586 68.5225C237.947 68.6257 236.996 68.7411 236.356 68.8115C233.321 69.139 229.834 69.3118 226.414 69.4307C219.431 69.6603 212.379 69.6948 205.217 69.7461C190.868 69.8322 176.417 69.9405 161.902 70.5498C133.081 72.2846 102.949 73.0177 75.5938 87.123C65.348 92.1764 57.4943 105.473 62.3018 116.325C62.3429 116.446 62.4247 116.551 62.5361 116.616C62.6474 116.681 62.7782 116.701 62.9014 116.671C63.0246 116.641 63.1317 116.561 63.2002 116.452C63.2685 116.343 63.292 116.212 63.2725 116.086C60.9105 104.763 68.8629 96.1235 78.4014 92.7793C104.377 83.8894 133.658 86.2719 161.871 87.1455C176.103 87.803 190.336 88.7323 204.78 89.4707C206.972 89.5798 209.158 89.6844 211.348 89.7812C161.485 129.66 111.545 168.202 66.9678 216.661C64.4838 219.665 61.4465 223.389 59.0918 227.631C58.3379 229 57.6895 230.371 57.1934 231.924C56.9413 232.85 55.5362 236.746 57.4717 240.962C59.7226 245.495 63.3922 246.622 66.0029 247.061C66.6792 247.163 67.3273 247.213 67.96 247.229C68.1494 247.234 68.1983 247.233 68.29 247.233C68.3746 247.233 68.4589 247.233 68.543 247.231C68.7113 247.229 68.8791 247.224 69.0459 247.217C69.7135 247.189 70.3716 247.13 71.0322 247.046C81.6298 245.139 87.6902 241.778 95.8018 238.176C109.911 231.472 124.568 223.344 138.104 215.532C166.209 199.278 192.19 182.882 219.409 165.289C228.226 159.547 237.502 153.466 247.255 147.035C247.363 146.964 247.443 146.854 247.474 146.728C247.505 146.601 247.485 146.468 247.419 146.356C247.353 146.245 247.245 146.164 247.119 146.131C246.993 146.098 246.859 146.115 246.745 146.175C236.428 151.652 226.617 156.813 217.294 161.669C188.614 176.679 161.377 190.797 132.479 204.951C118.571 211.703 103.57 218.845 89.7783 224.391C86.2627 225.812 83.4878 226.854 80.5254 227.87C124.242 184.603 175.957 146.179 225.27 106.817C233.416 100.425 241.879 93.7524 249.771 87.5215C250.841 87.0233 251.914 86.4593 253.27 85.333C255.078 83.8595 257.236 80.9605 257.671 77.3984ZM68.6377 230.751C68.6749 230.753 68.7434 230.762 68.8369 230.781C68.7813 230.78 68.7325 230.781 68.6914 230.777C68.5912 230.771 68.4185 230.735 68.6377 230.751ZM240.853 68.0293C240.82 68.0415 240.777 68.0557 240.725 68.0723C240.738 68.0661 240.75 68.0594 240.763 68.0537C240.986 67.9621 240.934 68.0002 240.853 68.0293Z" fill="#FBF300"/>
</svg>
