<svg width="1412" height="217" viewBox="0 0 1412 217" fill="none" xmlns="http://www.w3.org/2000/svg">
<path d="M737.717 58.3125C737.717 60.4792 736.279 62.3646 733.404 63.9688C731.3 65.1146 728.884 65.9479 726.154 66.4688C726.154 66.5521 726.196 68.9062 726.279 73.5312C724.363 74.2604 722.54 74.9167 720.811 75.5C721.269 73.2917 721.498 70.5625 721.498 67.3125C721.498 64.6875 721.394 62.5208 721.186 60.8125C721.082 59.9375 720.759 59.1771 720.217 58.5312C719.675 57.8854 719.123 57.25 718.561 56.625C720.707 56.125 723.175 55.6875 725.967 55.3125L725.998 56.75L735.967 54.625C737.134 55.9167 737.717 57.1458 737.717 58.3125ZM731.717 59.625C731.717 58.3125 731.123 57.6562 729.936 57.6562C729.415 57.6562 728.102 57.8229 725.998 58.1562L726.123 65.25C727.436 64.9375 728.654 64.2604 729.779 63.2188C731.071 62.0521 731.717 60.8542 731.717 59.625ZM756.702 56.7812C756.702 58.7188 754.827 62.0729 751.077 66.8438C749.306 69.1146 746.608 72.25 742.983 76.25C742.317 74.0417 741.65 71.8229 740.983 69.5938C739.942 66.4688 738.837 64.0625 737.671 62.375C736.087 60.1042 734.306 58.9688 732.327 58.9688C731.91 58.9688 731.483 59.0208 731.046 59.125V59.0312C732.421 58.3438 733.796 57.6458 735.171 56.9375C737.275 55.9375 738.619 55.4375 739.202 55.4375C739.889 55.4375 740.546 55.8958 741.171 56.8125C742.587 58.8958 744.212 63.5625 746.046 70.8125C747.837 68.9167 749.139 67.3646 749.952 66.1562C751.348 64.1562 752.046 62.3542 752.046 60.75C752.046 58.3333 750.671 56.8854 747.921 56.4062C750.671 55.3854 752.785 54.875 754.264 54.875C755.889 54.875 756.702 55.5104 756.702 56.7812ZM777.312 70.0312C771.458 73.9688 766.749 75.9375 763.187 75.9375C760.979 75.9375 759.281 75.3542 758.093 74.1875C756.906 73.0208 756.312 71.3333 756.312 69.125C756.312 65.5417 757.624 62.0938 760.249 58.7812C759.604 59.0312 758.645 59.4167 757.374 59.9375C755.645 59.4167 753.854 58.2812 751.999 56.5312C757.979 55.6146 765.885 55.0833 775.718 54.9375C772.343 55.625 770.218 56.0729 769.343 56.2812C766.947 56.8021 764.843 57.3333 763.031 57.875C761.364 59.3333 760.531 61.4583 760.531 64.25C760.531 66.6042 761.187 68.5312 762.499 70.0312C763.833 71.5312 765.666 72.2812 767.999 72.2812C770.374 72.2812 773.447 71.1146 777.218 68.7812L777.312 70.0312ZM781.641 71.3438C781.641 72.3854 781.016 73.2708 779.766 74C778.682 74.6667 777.589 75 776.484 75C775.172 75 774.516 74.5 774.516 73.5C774.516 72.4792 775.141 71.5833 776.391 70.8125C777.516 70.1458 778.62 69.8125 779.703 69.8125C780.995 69.8125 781.641 70.3229 781.641 71.3438ZM812.236 71.1562C807.527 72.5521 804.027 73.9479 801.736 75.3438C801.194 75.1146 800.694 74.8333 800.236 74.5C799.59 74.7083 798.632 75.0417 797.361 75.5C797.819 73.2292 798.048 70.4479 798.048 67.1562C798.048 64.5729 797.944 62.4583 797.736 60.8125C797.632 59.9375 797.309 59.1771 796.767 58.5312C796.225 57.8854 795.673 57.25 795.111 56.625C797.173 56.125 799.642 55.6875 802.517 55.3125L802.798 71.4688C805.111 71.1979 808.257 70.9792 812.236 70.8125V71.1562ZM831.752 70.0312C825.898 73.9688 821.189 75.9375 817.627 75.9375C815.419 75.9375 813.721 75.3542 812.533 74.1875C811.346 73.0208 810.752 71.3333 810.752 69.125C810.752 65.5417 812.064 62.0938 814.689 58.7812C814.044 59.0312 813.085 59.4167 811.814 59.9375C810.085 59.4167 808.294 58.2812 806.439 56.5312C812.419 55.6146 820.325 55.0833 830.158 54.9375C826.783 55.625 824.658 56.0729 823.783 56.2812C821.387 56.8021 819.283 57.3333 817.471 57.875C815.804 59.3333 814.971 61.4583 814.971 64.25C814.971 66.6042 815.627 68.5312 816.939 70.0312C818.273 71.5312 820.106 72.2812 822.439 72.2812C824.814 72.2812 827.887 71.1146 831.658 68.7812L831.752 70.0312ZM845.487 58.2812C845.487 60.9271 844.424 63.7396 842.299 66.7188C840.362 69.4271 838.143 71.5208 835.643 73C833.706 74.1458 831.174 74.9792 828.049 75.5C828.508 73.2292 828.737 70.4271 828.737 67.0938C828.737 64.4896 828.633 62.3958 828.424 60.8125C828.299 59.9167 827.977 59.1354 827.456 58.4688C826.893 57.8646 826.331 57.25 825.768 56.625C827.914 56.125 830.383 55.6875 833.174 55.3125L833.206 56.5938L844.018 54.2812C844.997 55.3854 845.487 56.7188 845.487 58.2812ZM839.768 59.4375C839.768 57.8958 839.331 57.125 838.456 57.125C837.706 57.125 835.966 57.3958 833.237 57.9375L833.487 72.8438C835.174 71.8438 836.664 69.8542 837.956 66.875C839.164 64.1042 839.768 61.625 839.768 59.4375ZM852.566 71.3438C852.566 72.3854 851.941 73.2708 850.691 74C849.607 74.6667 848.514 75 847.409 75C846.097 75 845.441 74.5 845.441 73.5C845.441 72.4792 846.066 71.5833 847.316 70.8125C848.441 70.1458 849.545 69.8125 850.628 69.8125C851.92 69.8125 852.566 70.3229 852.566 71.3438Z" fill="white"/>
<path d="M621.34 21.8125C616.798 22.7708 612.236 23.7292 607.652 24.6875C602.444 25.8542 597.944 27.0417 594.152 28.25C593.152 30.5 592.652 32.6042 592.652 34.5625C592.652 40.1458 596.923 42.9375 605.465 42.9375C609.715 42.9375 614.757 42.25 620.59 40.875L619.215 43.125C607.257 46.4583 597.611 48.125 590.277 48.125C581.861 48.125 577.652 45.7708 577.652 41.0625C577.652 38.2292 579.152 34.8542 582.152 30.9375C579.486 29.8125 576.757 27.8333 573.965 25C578.215 24.375 583.34 23.7708 589.34 23.1875C594.382 18.5208 600.652 13.75 608.152 8.875C599.069 11 591.673 13.3333 585.965 15.875C582.34 14.7917 578.736 12.5208 575.152 9.0625C586.277 7.35417 601.257 6.29167 620.09 5.875V6.4375C615.132 7.6875 610.819 9.64583 607.152 12.3125C603.694 14.8125 600.423 18.25 597.34 22.625C602.298 22.3333 610.298 22.0625 621.34 21.8125ZM659.997 22.9375C650.206 24.8958 644.268 26.1042 642.185 26.5625C635.477 28.1042 629.664 29.8125 624.747 31.6875C626.164 33.7708 628.164 35.4375 630.747 36.6875C633.331 37.8958 635.914 38.5 638.497 38.5C642.997 38.5 648.435 36.5833 654.81 32.75L655.497 35.0625C646.581 42.3958 638.602 46.0625 631.56 46.0625C626.893 46.0625 623.164 44.3542 620.372 40.9375C617.872 37.8125 616.518 33.8125 616.31 28.9375C615.518 28.3542 614.289 27.3333 612.622 25.875C613.456 25.7917 614.685 25.625 616.31 25.375C616.768 19.5833 618.768 14.7917 622.31 11C626.018 6.95833 630.727 4.9375 636.435 4.9375C642.643 4.9375 648.227 7.4375 653.185 12.4375L643.872 19.3125C638.372 14.3542 633.622 11.875 629.622 11.875C626.997 11.875 624.956 12.8958 623.497 14.9375C622.206 16.7292 621.56 19 621.56 21.75C621.56 22.75 621.664 23.7708 621.872 24.8125C631.247 23.8958 643.956 23.2708 659.997 22.9375ZM692.717 43.0625C688.884 44.5208 685.238 45.8333 681.78 47C682.405 44.125 682.801 40.5417 682.967 36.25C679.134 30.25 673.697 24.7292 666.655 19.6875C666.738 29.5208 666.863 38.2083 667.03 45.75C665.863 46.125 664.051 46.3125 661.592 46.3125C659.134 46.3542 657.322 46.5833 656.155 47C657.072 42.4583 657.53 37 657.53 30.625C657.53 25.5 657.301 21.1667 656.842 17.625C656.592 15.8333 655.967 14.2708 654.967 12.9375C653.842 11.7292 652.717 10.5 651.592 9.25C656.134 8.20833 661.072 7.33333 666.405 6.625C667.947 8.83333 670.592 12.7917 674.342 18.5C675.842 20.8333 677.363 23.1458 678.905 25.4375C680.655 28.1458 682.051 30.5208 683.092 32.5625V30.25C683.134 25.0833 682.947 20.875 682.53 17.625C682.28 15.625 681.572 13.9583 680.405 12.625C679.655 11.9167 678.592 10.7917 677.217 9.25C681.676 8.20833 686.634 7.33333 692.092 6.625C692.259 18.875 692.467 31.0208 692.717 43.0625ZM740.688 36.0625C728.979 43.9375 719.562 47.875 712.438 47.875C708.021 47.875 704.625 46.7083 702.25 44.375C699.875 42.0417 698.688 38.6667 698.688 34.25C698.688 27.0833 701.312 20.1875 706.562 13.5625C705.271 14.0625 703.354 14.8333 700.812 15.875C697.354 14.8333 693.771 12.5625 690.062 9.0625C702.021 7.22917 717.833 6.16667 737.5 5.875C730.75 7.25 726.5 8.14583 724.75 8.5625C719.958 9.60417 715.75 10.6667 712.125 11.75C708.792 14.6667 707.125 18.9167 707.125 24.5C707.125 29.2083 708.438 33.0625 711.062 36.0625C713.729 39.0625 717.396 40.5625 722.062 40.5625C726.812 40.5625 732.958 38.2292 740.5 33.5625L740.688 36.0625ZM769.282 49.4375L767.907 50.8125C759.657 42.2292 751.282 36.0417 742.782 32.25C742.782 34.2083 742.845 37.8125 742.97 43.0625C739.137 44.5208 735.491 45.8333 732.032 47C732.949 42.4167 733.407 36.8542 733.407 30.3125C733.407 25.0625 733.199 20.8333 732.782 17.625C732.532 15.8333 731.907 14.2917 730.907 13C729.782 11.75 728.657 10.5 727.532 9.25C732.074 8.20833 737.012 7.33333 742.345 6.625L742.407 9.1875C743.907 8.89583 750.095 7.58333 760.97 5.25C763.303 7.83333 764.47 10.2708 764.47 12.5625C764.47 15.1875 762.866 17.7917 759.657 20.375C757.199 22.2917 754.387 23.875 751.22 25.125C756.97 31.6667 762.991 39.7708 769.282 49.4375ZM752.907 14.5C752.907 12.125 751.803 10.9375 749.595 10.9375C748.553 10.9375 746.157 11.25 742.407 11.875C742.407 12 742.491 16.4583 742.657 25.25C745.157 24.5833 747.428 23.2708 749.47 21.3125C751.762 19.1458 752.907 16.875 752.907 14.5ZM804.44 23.6875C804.44 29.5625 801.919 34.5833 796.877 38.75C792.086 42.6667 786.69 44.625 780.69 44.625C775.857 44.625 771.711 43.25 768.252 40.5C764.586 37.5417 762.752 33.6875 762.752 28.9375C762.752 23.0625 765.273 18.0625 770.315 13.9375C775.023 10.0625 780.398 8.125 786.44 8.125C791.232 8.125 795.357 9.47917 798.815 12.1875C802.565 15.1458 804.44 18.9792 804.44 23.6875ZM794.815 28.5625C794.815 24.6875 793.794 21.0625 791.752 17.6875C789.419 13.7708 786.419 11.8125 782.752 11.8125C779.669 11.8125 777.211 13.3125 775.377 16.3125C773.794 18.8542 773.002 21.7708 773.002 25.0625C773.002 28.8542 774.023 32.4167 776.065 35.75C778.398 39.5417 781.377 41.4375 785.002 41.4375C788.127 41.4375 790.607 40.0208 792.44 37.1875C794.023 34.7292 794.815 31.8542 794.815 28.5625ZM842.66 49.4375L841.347 50.8125C833.097 42.2292 824.722 36.0417 816.222 32.25C816.222 34.2083 816.285 37.8125 816.41 43.0625C814.202 43.9375 810.556 45.25 805.472 47C806.389 42.4583 806.847 36.9167 806.847 30.375C806.847 25.2083 806.639 20.9583 806.222 17.625C806.014 15.875 805.368 14.3542 804.285 13.0625C803.202 11.7708 802.097 10.5 800.972 9.25C805.306 8.25 810.243 7.375 815.785 6.625C815.785 11.3333 815.889 17.5417 816.097 25.25C818.764 24.5417 821.243 23.1667 823.535 21.125C826.16 18.7917 827.472 16.3958 827.472 13.9375C827.472 11.7708 826.452 10.2917 824.41 9.5V7.375C828.118 6.625 831.431 5.91667 834.347 5.25C836.681 7.875 837.847 10.3125 837.847 12.5625C837.847 15.1875 836.243 17.7917 833.035 20.375C830.618 22.3333 827.827 23.9167 824.66 25.125C830.618 31.9167 836.618 40.0208 842.66 49.4375Z" fill="white"/>
</svg>
