<svg width="295" height="298" viewBox="0 0 295 298" fill="none" xmlns="http://www.w3.org/2000/svg">
<path d="M147.5 0C228.962 0 295 66.7096 295 149C295 231.29 228.962 298 147.5 298C66.038 298 0 231.29 0 149C0 66.7096 66.038 0 147.5 0Z" fill="black"/>
<path d="M62.3015 116.325C62.3426 116.446 62.4243 116.551 62.5358 116.616C62.6472 116.681 62.7782 116.701 62.9015 116.671C63.0247 116.64 63.1316 116.562 63.2 116.453C63.2686 116.343 63.292 116.212 63.2724 116.086C63.2724 116.086 63.2724 116.086 63.2724 116.086C60.9103 104.762 68.8632 96.1234 78.4018 92.7793C104.377 83.8894 133.658 86.2722 161.871 87.1458C176.104 87.8032 190.336 88.7323 204.78 89.4707C212.01 89.8306 219.16 90.1585 226.675 90.2235C230.383 90.2473 234.218 90.2166 238.224 89.9307C239.07 89.8728 240.406 89.749 241.453 89.6189C242.578 89.4757 243.479 89.3567 244.98 89.044C245.663 88.899 246.344 88.7327 247.038 88.5301C247.397 88.4245 247.697 88.3319 248.128 88.1823C248.636 88.0044 249.155 87.8015 249.695 87.558C250.79 87.051 251.881 86.4859 253.27 85.3328C255.078 83.8592 257.237 80.9607 257.671 77.3986C259.16 66.7434 249.055 60.9868 240.457 67.4543C231.203 74.3596 221.21 82.0393 211.688 89.5105C161.713 129.486 111.646 168.092 66.9673 216.662C64.4833 219.666 61.4469 223.389 59.0922 227.631C58.3382 229 57.6899 230.371 57.1937 231.924C56.9416 232.851 55.5362 236.746 57.4717 240.962C59.7226 245.494 63.392 246.622 66.0027 247.061C66.6792 247.163 67.3275 247.213 67.9604 247.23C68.1498 247.234 68.1982 247.233 68.2899 247.233C68.3747 247.233 68.4591 247.233 68.5433 247.231C68.7118 247.229 68.8794 247.224 69.0463 247.217C69.714 247.19 70.3718 247.13 71.0326 247.046C81.6302 245.138 87.6902 241.779 95.8017 238.176C109.912 231.473 124.567 223.343 138.105 215.532C166.209 199.278 192.19 182.882 219.409 165.289C228.226 159.546 237.502 153.466 247.255 147.035C247.363 146.963 247.442 146.854 247.473 146.727C247.505 146.601 247.485 146.468 247.419 146.356C247.353 146.245 247.246 146.164 247.119 146.131C246.993 146.098 246.859 146.115 246.745 146.175C246.745 146.175 246.745 146.175 246.745 146.175C236.428 151.652 226.617 156.813 217.294 161.669C188.614 176.679 161.377 190.798 132.478 204.951C118.57 211.704 103.57 218.845 89.7779 224.391C85.7199 226.031 82.6498 227.168 79.1377 228.341C74.9809 229.711 72.2532 230.473 69.2759 230.775C69.0173 230.79 68.8187 230.788 68.6916 230.777C68.5914 230.771 68.4181 230.735 68.6381 230.751C68.9373 230.771 71.2426 231.203 72.6324 234.02C73.2178 235.272 73.2239 236.329 73.1893 236.807C73.1371 237.332 73.1287 237.257 73.1522 237.255C73.1978 237.186 73.4103 236.729 73.8156 236.077C75.1221 233.963 77.8762 230.684 80.1687 228.223C123.96 184.811 175.823 146.287 225.27 106.817C234.73 99.3942 244.62 91.5951 253.543 84.5457L236.329 74.6014C236.652 71.8896 238.342 69.754 239.347 68.9639C240.126 68.3236 240.54 68.1581 240.763 68.0537C240.986 67.9619 240.934 68.0004 240.852 68.0294C240.761 68.0639 240.586 68.1185 240.343 68.1791C239.788 68.3143 239.266 68.4145 238.586 68.5225C237.947 68.6257 236.997 68.741 236.357 68.8114C233.321 69.1389 229.834 69.3118 226.414 69.4307C219.431 69.6603 212.38 69.6949 205.217 69.7462C190.868 69.8323 176.417 69.9408 161.902 70.5501C133.081 72.2849 102.949 73.0172 75.5935 87.1226C65.3477 92.1759 57.494 105.473 62.3015 116.325Z" fill="#FBF300"/>
</svg>
